<svg width="100" height="32" viewBox="0 0 100 32" fill="none" xmlns="http://www.w3.org/2000/svg">
<g id="Logo" clip-path="url(#clip0_28_2)">
<path id="Vector" d="M93.3655 6.44092H56.2957C56.1542 6.44092 56.0396 6.5556 56.0396 6.69708V31.6827C56.0396 31.8241 56.1542 31.9388 56.2957 31.9388H93.3655C93.507 31.9388 93.6217 31.8241 93.6217 31.6827V6.69708C93.6217 6.5556 93.507 6.44092 93.3655 6.44092Z" fill="#D93227"/>
<g id="Group">
<path id="Vector_2" d="M8.41989 9.32812H12.4057L20.8269 29.1163H16.3083L14.5113 24.7091H6.20285L4.40591 29.1163H0L8.41989 9.32812ZM12.9667 20.8923L10.3564 14.5204L7.7462 20.8923H12.9667Z" fill="#2B3240"/>
<path id="Vector_3" d="M22.1755 9.46777H26.4982V25.1856H36.2949V29.115H22.1768V9.46777H22.1755Z" fill="#2B3240"/>
<path id="Vector_4" d="M38.4274 9.46777H42.7501V25.1856H52.5468V29.115H38.4287V9.46777H38.4274Z" fill="#2B3240"/>
</g>
<g id="Group_2">
<path id="Vector_5" d="M59.7641 25.1344L61.8812 23.1645C63.1121 24.6169 64.4915 25.4302 66.4114 25.4302C68.1097 25.4302 69.3905 24.3954 69.3905 22.7713C69.3905 21.1473 67.8394 20.1124 65.4264 20.1124H64.0227L63.5296 18.2168L68.1827 13.2679H60.7221V10.6333H72.1224V12.899L67.3207 17.8236C70.0539 18.2181 72.3926 19.6206 72.3926 22.7226C72.3926 25.8247 69.931 28.1634 66.3601 28.1634C63.3567 28.1634 61.2139 26.907 59.7615 25.1357L59.7641 25.1344Z" fill="white"/>
<path id="Vector_6" d="M74.4073 10.6318H80.833C86.2495 10.6318 89.9919 14.35 89.9919 19.249C89.9919 24.148 86.2495 27.8661 80.833 27.8661H74.4073V10.6318ZM80.833 25.1086C84.4525 25.1086 86.8156 22.6712 86.8156 19.249C86.8156 15.8267 84.4512 13.3894 80.833 13.3894H77.4351V25.1086H80.833Z" fill="white"/>
</g>
<path id="Vector_7" d="M97.0234 29.3777H95.5787V4.48428H58.6447V3.03955H96.173C96.6431 3.03955 97.0234 3.41994 97.0234 3.88999V29.3777Z" fill="#D93227"/>
<path id="Vector_8" d="M100 26.4009H98.5553V1.50625H61.6212V0.0615234H99.1496C99.6196 0.0615234 100 0.441917 100 0.911966V26.4009Z" fill="#D93227"/>
</g>
<defs>
<clipPath id="clip0_28_2">
<rect width="100" height="31.8775" fill="white" transform="translate(0 0.0615234)"/>
</clipPath>
</defs>
</svg>
